<?xml version="1.0" encoding="UTF-8" standalone="no" ?>
<!DOCTYPE svg PUBLIC "-//W3C//DTD SVG 1.1//EN" "http://www.w3.org/Graphics/SVG/1.1/DTD/svg11.dtd">
<svg
  xmlns="http://www.w3.org/2000/svg"
  xmlns:xlink="http://www.w3.org/1999/xlink"
  version="1.1"
  width="340"
  height="80"
  viewBox="0 0 340 80"
  xml:space="preserve"
>
  <g transform="matrix(1 0 0 1 149 35)">
    <g transform="matrix(1 0 0 1 0 0.01)">
      <path
        style="
          stroke: none;
          stroke-width: 1;
          stroke-dasharray: none;
          stroke-linecap: butt;
          stroke-dashoffset: 0;
          stroke-linejoin: miter;
          stroke-miterlimit: 4;
          fill: rgb(233, 148, 91);
          fill-rule: nonzero;
          opacity: 1;
        "
        transform=" translate(-149.17, -34.48)"
        d="M 0 0 h 286.19 l 12.158 68.95 H 12.158 z"
        stroke-linecap="round"
      />
    </g>
    <g transform="matrix(1 0 0 1 0 0)">
      <path
        style="
          stroke: none;
          stroke-width: 1;
          stroke-dasharray: none;
          stroke-linecap: butt;
          stroke-dashoffset: 0;
          stroke-linejoin: miter;
          stroke-miterlimit: 4;
          fill: rgb(0, 0, 0);
          fill-rule: nonzero;
          opacity: 1;
        "
        transform=" translate(-149.17, -34.47)"
        d="M 27.629 41.9 h 1.37 q 2.91 0 6.6 -1.1 v -3.3 h -7.97 q -0.83 0 -1.38 0.55 q -0.55 0.55 -0.55 1.37 v 0.56 q 0 0.82 0.55 1.37 q 0.55 0.55 1.38 0.55 Z m -8.8 -14.58 v -6.87 q 10.06 -1.1 18.14 -1.1 q 3.75 0 6 2.25 q 2.25 2.26 2.25 6 v 21.45 h -8.52 l -0.55 -2.75 q -2.59 1.71 -5.31 2.5 q -2.72 0.8 -4.59 0.8 h -1.92 q -3.75 0 -6 -2.26 q -2.25 -2.25 -2.25 -5.99 v -2.48 q 0 -3.74 2.25 -5.99 q 2.25 -2.26 6 -2.26 h 11.27 v -2.2 q 0 -0.82 -0.55 -1.37 q -0.55 -0.55 -1.37 -0.55 q -3.58 0 -7.9 0.33 t -6.95 0.49 Z m 49.5 0 h -1.93 q -2.92 0 -6.6 1.1 v 13.21 h 8.25 q 2.2 0 2.2 -2.21 V 29.25 q 0 -0.83 -0.55 -1.38 q -0.55 -0.55 -1.37 -0.55 Z m 2.75 21.73 h -11.28 v 9.35 h -9.62 V 19.9 h 8.52 l 0.55 2.75 q 2.59 -1.71 5.31 -2.5 q 2.72 -0.8 4.59 -0.8 h 2.47 q 3.75 0 6 2.25 q 2.26 2.26 2.26 6 v 12.65 q 0 4.13 -2.34 6.46 q -2.34 2.34 -6.46 2.34 Z M 83.169 21 h 13.75 v 28.05 h -9.62 V 28.42 h -4.13 V 21 Z m 4.13 -3.3 V 10 h 9.62 v 7.7 h -9.62 Z m 34.1 31.9 v -2.75 q -5.34 1.1 -9.35 1.1 h -1.93 q -3.74 0 -5.99 -2.25 q -2.26 -2.26 -2.26 -6 v -11 q 0 -4.13 2.34 -6.46 q 2.34 -2.34 6.46 -2.34 h 20.35 v 30.8 q 0 3.74 -2.25 6 q -2.26 2.25 -6 2.25 q -8.63 0 -19.25 -1.1 V 50.7 q 10.51 0.83 15.95 0.83 q 0.83 0 1.38 -0.55 q 0.55 -0.55 0.55 -1.38 Z m -7.98 -9.08 h 1.38 q 3.46 0 6.6 -0.54 V 27.32 h -7.7 q -2.2 0 -2.2 2.21 v 9.07 q 0 0.82 0.55 1.38 q 0.55 0.54 1.37 0.54 Z m 39.33 -14.29 h -4.95 q -2.2 0 -2.2 2.19 v 3.03 h 9.35 v -3.03 q 0 -2.19 -2.2 -2.19 Z m 10.72 15.4 v 6.87 q -10.61 1.1 -19.25 1.1 q -3.74 0 -5.99 -2.26 q -2.26 -2.25 -2.26 -5.99 v -13.2 q 0 -4.12 2.34 -6.46 t 6.46 -2.34 h 11 q 4.13 0 6.47 2.34 t 2.34 6.46 v 10.18 h -18.98 v 2.19 q 0 0.83 0.55 1.38 q 0.55 0.55 1.37 0.55 q 5.45 0 15.95 -0.82 Z m 24.2 -14.31 h -1.92 q -2.92 0 -6.6 1.1 v 20.63 h -9.63 V 19.9 h 8.53 l 0.55 2.75 q 2.58 -1.71 5.31 -2.5 q 2.72 -0.8 4.59 -0.8 h 2.47 q 3.74 0 6 2.25 q 2.25 2.26 2.25 6 v 21.45 h -9.62 v -19.8 q 0 -0.83 -0.55 -1.38 q -0.55 -0.55 -1.38 -0.55 Z m 37.95 6.33 h -22.54 v -7.7 h 22.54 v 7.7 Z m 24.75 8.25 v 7.15 q -5.33 0.55 -10.45 0.55 q -3.74 0 -5.99 -2.26 q -2.26 -2.25 -2.26 -5.99 V 27.32 h -3.3 V 19.9 h 3.3 l 1.1 -6.6 h 8.53 v 6.6 h 6.87 v 7.42 h -6.87 v 12.66 q 0 0.82 0.55 1.37 q 0.55 0.55 1.37 0.55 h 7.15 Z m 2.75 6.6 v -7.15 q 11.17 0.82 17.6 0.82 q 0.83 0 1.38 -0.54 q 0.55 -0.55 0.55 -1.38 v -1.92 h -11.83 q -3.74 0 -5.99 -2.26 q -2.26 -2.25 -2.26 -6 v -1.92 q 0 -3.74 2.26 -5.99 q 2.25 -2.26 5.99 -2.26 h 18.7 v 7.15 h -15.4 q -0.82 0 -1.37 0.55 q -0.55 0.55 -0.55 1.38 q 0 0.82 0.55 1.37 q 0.55 0.55 1.37 0.55 h 9.9 q 3.74 0 6 2.26 q 2.25 2.25 2.25 5.99 v 2.2 q 0 3.74 -2.25 5.99 q -2.26 2.26 -6 2.26 q -9.73 0 -20.9 -1.1 Z"
        stroke-linecap="round"
      />
    </g>
  </g>
</svg>
