<svg width="320" height="80" xmlns="http://www.w3.org/2000/svg">
  <path d="M9 5h286.19l12.158 68.95H21.158z" fill="#FB9041" />
  <path
    d="M38.455 47.9h1.37q2.91 0 6.6-1.1v-3.3h-7.97q-.83 0-1.38.55t-.55 1.37v.56q0 .82.55 1.37t1.38.55m-8.8-14.58v-6.87q10.06-1.1 18.14-1.1 3.75 0 6 2.25 2.25 2.26 2.25 6v21.45h-8.52l-.55-2.75q-2.59 1.71-5.31 2.5-2.72.8-4.59.8h-1.92q-3.75 0-6-2.26-2.25-2.25-2.25-5.99v-2.48q0-3.74 2.25-5.99 2.25-2.26 6-2.26h11.27v-2.2q0-.82-.55-1.37t-1.37-.55q-3.58 0-7.9.33t-6.95.49m49.5 0h-1.93q-2.92 0-6.6 1.1v13.21h8.25q2.2 0 2.2-2.21V35.25q0-.83-.55-1.38t-1.37-.55m2.75 21.73h-11.28v9.35h-9.62V25.9h8.52l.55 2.75q2.59-1.71 5.31-2.5 2.72-.8 4.59-.8h2.47q3.75 0 6 2.25 2.26 2.26 2.26 6v12.65q0 4.13-2.34 6.46-2.34 2.34-6.46 2.34M93.995 27h13.75v28.05h-9.62V34.42h-4.13zm4.13-3.3V16h9.62v7.7zm34.1 31.9v-2.75q-5.34 1.1-9.35 1.1h-1.93q-3.74 0-5.99-2.25-2.26-2.26-2.26-6v-11q0-4.13 2.34-6.46 2.34-2.34 6.46-2.34h20.35v30.8q0 3.74-2.25 6-2.26 2.25-6 2.25-8.63 0-19.25-1.1V56.7q10.51.83 15.95.83.83 0 1.38-.55t.55-1.38m-7.98-9.08h1.38q3.46 0 6.6-.54V33.32h-7.7q-2.2 0-2.2 2.21v9.07q0 .82.55 1.38.55.54 1.37.54m39.33-14.29h-4.95q-2.2 0-2.2 2.19v3.03h9.35v-3.03q0-2.19-2.2-2.19m10.72 15.4v6.87q-10.61 1.1-19.25 1.1-3.74 0-5.99-2.26-2.26-2.25-2.26-5.99v-13.2q0-4.12 2.34-6.46t6.46-2.34h11q4.13 0 6.47 2.34t2.34 6.46v10.18h-18.98v2.19q0 .83.55 1.38t1.37.55q5.45 0 15.95-.82m24.2-14.31h-1.92q-2.92 0-6.6 1.1v20.63h-9.63V25.9h8.53l.55 2.75q2.58-1.71 5.31-2.5 2.72-.8 4.59-.8h2.47q3.74 0 6 2.25 2.25 2.26 2.25 6v21.45h-9.62v-19.8q0-.83-.55-1.38t-1.38-.55m37.95 6.33h-22.54v-7.7h22.54zm24.75 8.25v7.15q-5.33.55-10.45.55-3.74 0-5.99-2.26-2.26-2.25-2.26-5.99V33.32h-3.3V25.9h3.3l1.1-6.6h8.53v6.6h6.87v7.42h-6.87v12.66q0 .82.55 1.37t1.37.55zm2.75 6.6v-7.15q11.17.82 17.6.82.83 0 1.38-.54.55-.55.55-1.38v-1.92h-11.83q-3.74 0-5.99-2.26-2.26-2.25-2.26-6v-1.92q0-3.74 2.26-5.99 2.25-2.26 5.99-2.26h18.7v7.15h-15.4q-.82 0-1.37.55t-.55 1.38q0 .82.55 1.37t1.37.55h9.9q3.74 0 6 2.26 2.25 2.25 2.25 5.99v2.2q0 3.74-2.25 5.99-2.26 2.26-6 2.26-9.73 0-20.9-1.1"
  />
</svg>
